<?xml version="1.0" standalone="no"?>
<!DOCTYPE svg PUBLIC "-//W3C//DTD SVG 20010904//EN"
 "http://www.w3.org/TR/2001/REC-SVG-20010904/DTD/svg10.dtd">
<svg version="1.0" xmlns="http://www.w3.org/2000/svg"
 width="260.000000pt" height="260.000000pt" viewBox="0 0 260.000000 260.000000"
 preserveAspectRatio="xMidYMid meet">
<metadata>
Created by potrace 1.11, written by Peter Selinger 2001-2013
</metadata>
<g transform="translate(0.000000,260.000000) scale(0.100000,-0.100000)"
fill="#000000" stroke="none">
<path d="M1999 2257 c-74 -62 -233 -196 -354 -297 -201 -168 -393 -330 -421
-355 -45 -39 -468 -391 -474 -393 -4 -1 -8 226 -8 505 0 279 -1 514 -1 520 -1
9 -11 8 -36 -5 l-35 -17 0 -537 0 -536 -52 -44 c-29 -24 -60 -49 -68 -55 -16
-12 -18 88 -20 830 l0 267 -38 -19 -37 -19 1 -219 c1 -120 3 -395 3 -610 1
-230 5 -393 10 -393 8 0 125 92 141 110 3 4 92 79 199 169 133 111 199 160
210 156 20 -8 100 -68 101 -76 0 -4 -95 -87 -211 -185 -116 -99 -223 -189
-238 -201 -14 -13 -63 -53 -108 -90 -45 -38 -86 -79 -91 -93 -7 -21 -6 -79 2
-87 1 -1 18 12 37 30 19 18 61 55 94 82 33 28 65 55 71 61 34 31 366 309 373
312 4 1 55 -34 112 -79 57 -44 118 -92 134 -104 17 -13 64 -50 105 -83 468
-366 725 -564 735 -568 9 -4 12 7 11 38 -2 42 -3 44 -122 136 -65 52 -135 106
-154 122 -19 15 -58 45 -86 67 -247 186 -674 527 -667 532 4 3 22 19 40 35
l31 28 469 -352 c257 -194 473 -357 479 -362 14 -11 12 78 -2 92 -5 5 -99 76
-209 159 -110 82 -204 154 -210 158 -5 5 -46 35 -90 68 -44 33 -85 64 -91 70
-7 5 -73 55 -147 110 -75 55 -135 103 -134 106 2 7 61 58 574 493 166 141 306
262 310 269 12 19 11 97 -2 89 -10 -5 -185 -151 -195 -162 -5 -5 -109 -94
-159 -135 -13 -11 -29 -25 -35 -30 -6 -6 -85 -73 -176 -150 -91 -76 -167 -142
-170 -145 -3 -3 -30 -25 -60 -50 -30 -25 -64 -53 -75 -64 -11 -10 -34 -29 -52
-43 l-31 -24 -56 43 -56 43 23 20 c12 11 153 130 312 264 160 133 301 252 315
264 14 12 108 91 210 176 102 85 191 160 199 167 14 13 25 104 12 104 -4 0
-68 -51 -142 -113z"/>
</g>
</svg>
